<?xml version="1.0" encoding="UTF-8"?>
<svg width="77px" height="91px" viewBox="0 0 77 91" version="1.1" xmlns="http://www.w3.org/2000/svg" xmlns:xlink="http://www.w3.org/1999/xlink">
    <!-- Generator: Sketch 60 (88103) - https://sketch.com -->
    <title>android-icon</title>
    <desc>Created with Sketch.</desc>
    <g id="Symbols" stroke="none" stroke-width="1" fill="none" fill-rule="evenodd">
        <g id="Icons/Mobile" transform="translate(-152.000000, -85.000000)" fill-rule="nonzero">
            <g id="android-icon" transform="translate(152.000000, 85.000000)">
                <path d="M23.5167058,0.257415429 C23.0953987,0.261563286 22.6580771,0.363202163 22.2596515,0.584051138 C20.9943955,1.28539495 20.5303446,2.91134637 21.2311526,4.17563678 L24.0880939,9.33445792 C17.2050557,13.5932887 12.6440033,20.8675015 12.6440033,29.1697932 C12.6440033,29.2046444 12.6439066,29.2569973 12.6440033,29.3085589 C12.6440373,29.3267538 12.6438335,29.3371244 12.6440033,29.3575331 C12.6440139,29.3846656 12.6440033,29.4242872 12.6440033,29.4309982 L12.6440033,30.7125402 C11.3220603,29.1915497 9.37882048,28.2310832 7.20765221,28.2310832 C3.22997233,28.2310832 0,31.4610568 0,35.4387377 L0,57.6412526 C0,61.6189335 3.22997233,64.8489071 7.20765221,64.8489071 C9.37882048,64.8489071 11.3220603,63.8884405 12.6440033,62.3674501 L12.6440033,65.4774353 C12.6440033,69.6703831 16.0750076,73.1013872 20.2679553,73.1013872 L22.2025126,73.1013872 L22.2025126,82.9782438 C22.2025126,86.9559428 25.4324875,90.1858983 29.4101668,90.1858983 C33.3878476,90.1858983 36.6178215,86.9559428 36.6178215,82.9782438 L36.6178215,73.1013872 L39.9645259,73.1013872 L39.9645259,82.9782438 C39.9645259,86.9559428 43.1944994,90.1858983 47.1721804,90.1858983 C51.1498586,90.1858983 54.3798376,86.9559428 54.3798376,82.9782438 L54.3798376,73.1013872 L56.3143933,73.1013872 C60.5073411,73.1013872 63.9383452,69.6703831 63.9383452,65.4774353 L63.9383452,62.3674501 C65.2602923,63.8884405 67.2035283,64.8489071 69.374698,64.8489071 C73.3523786,64.8489071 76.5823524,61.6189335 76.5823524,57.6412526 L76.5823524,35.4387377 C76.5823524,31.4610568 73.3523786,28.2310832 69.374698,28.2310832 C67.2035283,28.2310832 65.2602923,29.1915497 63.9383452,30.7125402 L63.9383452,29.4554866 L63.9383452,29.4310034 C63.9385126,29.3917142 63.938389,29.352639 63.9383452,29.3575408 C63.9388606,29.2792976 63.9383452,29.216953 63.9383452,29.1697983 C63.9383452,20.8689602 59.3671215,13.601765 52.4860911,9.342625 L55.3511977,4.17562907 C56.0520055,2.91133864 55.5879556,1.28538722 54.3226987,0.584043407 C53.9242716,0.363194429 53.4869523,0.261560708 53.0656452,0.257415429 C52.1312958,0.248592332 51.2142134,0.741009209 50.7311132,1.61254235 L47.7354052,7.0244092 C44.806176,5.94345174 41.6190221,5.35105566 38.291175,5.35105566 C34.9667192,5.35105566 31.7737102,5.93738763 28.8469419,7.01624467 L25.8512341,1.61254235 C25.3681368,0.741006632 24.4510528,0.24861295 23.5167058,0.257415429 L23.5167058,0.257415429 Z" id="Path" fill="#FFFFFF"></path>
                <path d="M7.20782204,30.1085004 C4.23951017,30.1085004 1.87758575,32.4704254 1.87758575,35.4387377 L1.87758575,57.6412526 C1.87758575,60.6095649 4.23951017,62.9714899 7.20782204,62.9714899 C10.1761336,62.9714899 12.5380582,60.6095649 12.5380582,57.6412526 L12.5380582,35.4387377 C12.5380582,32.4704254 10.1761336,30.1085004 7.20782204,30.1085004 L7.20782204,30.1085004 Z M69.3748681,30.1085004 C66.4065554,30.1085004 64.0446307,32.4704254 64.0446307,35.4387377 L64.0446307,57.6412526 C64.0446307,60.6095649 66.4065554,62.9714899 69.3748681,62.9714899 C72.3431804,62.9714899 74.7051027,60.6095649 74.7051027,57.6412526 L74.7051027,35.4387377 C74.7051027,32.4704254 72.3431804,30.1085004 69.3748681,30.1085004 L69.3748681,30.1085004 Z" id="Shape" fill="#A4C639"></path>
                <path d="M29.4101668,55.4454247 C26.4418545,55.4454247 24.0799312,57.8073494 24.0799312,60.7756617 L24.0799312,82.9781922 C24.0799312,85.9465123 26.4418545,88.3083959 29.4101668,88.3083959 C32.3784793,88.3083959 34.740404,85.9465123 34.740404,82.9781922 L34.740404,60.7756617 C34.740404,57.8073494 32.3784793,55.4454247 29.4101668,55.4454247 L29.4101668,55.4454247 Z M47.1721804,55.4454247 C44.2038681,55.4454247 41.8419431,57.8073494 41.8419431,60.7756617 L41.8419431,82.9781922 C41.8419431,85.9465123 44.2038681,88.3083959 47.1721804,88.3083959 C50.1404927,88.3083959 52.502415,85.9465123 52.502415,82.9781922 L52.502415,60.7756617 C52.502415,57.8073494 50.1404927,55.4454247 47.1721804,55.4454247 L47.1721804,55.4454247 Z" id="Shape" fill="#A4C639"></path>
                <path d="M23.5330312,2.13492577 C23.4070279,2.13625136 23.2896159,2.16875992 23.1738729,2.2329137 C22.7937866,2.44360085 22.6687969,2.88036608 22.8800159,3.26141521 L26.6348519,10.0446105 C19.4107189,13.8035274 14.5312015,20.9469766 14.5214219,29.1453048 L62.0609278,29.1453048 C62.0511604,20.9469766 57.1716311,13.8035274 49.9474955,10.0446105 L53.7023352,3.26141521 C53.9135532,2.88036608 53.7885624,2.44360085 53.4084771,2.2329137 C53.2927335,2.16875992 53.1753222,2.13616373 53.0493186,2.13492577 C52.7795778,2.13235982 52.5238959,2.26713609 52.3799757,2.52677164 L48.5761618,9.38343211 C45.4644909,8.00319689 41.974271,7.22848331 38.291175,7.22848331 C34.6080761,7.22848331 31.1178534,8.00319689 28.0061855,9.38343211 L24.2023715,2.52677164 C24.0584522,2.26713609 23.8027682,2.13237528 23.5330312,2.13492577 L23.5330312,2.13492577 Z M14.5214219,31.0227222 L14.5214219,65.4774353 C14.5214219,68.6610144 17.0843759,71.223967 20.2679553,71.223967 L56.3143933,71.223967 C59.4979752,71.223967 62.0609278,68.6610144 62.0609278,65.4774353 L62.0609278,31.0227222 L14.5214219,31.0227222 L14.5214219,31.0227222 Z" id="Shape" fill="#A4C639"></path>
                <path d="M27.3204542,16.4768092 C26.2352161,16.4768092 25.3369202,17.3751038 25.3369202,18.4603446 C25.3369202,19.5455827 26.2352161,20.4438773 27.3204542,20.4438773 C28.4056924,20.4438773 29.303987,19.5455827 29.303987,18.4603446 C29.303987,17.3751038 28.4056924,16.4768092 27.3204542,16.4768092 L27.3204542,16.4768092 Z M49.2617642,16.4768092 C48.1765258,16.4768092 47.2782289,17.3751038 47.2782289,18.4603446 C47.2782289,19.5455827 48.1765258,20.4438773 49.2617642,20.4438773 C50.3469998,20.4438773 51.2452967,19.5455827 51.2452967,18.4603446 C51.2452967,17.3751038 50.3469998,16.4768092 49.2617642,16.4768092 L49.2617642,16.4768092 Z" id="Shape" fill="#FFFFFF"></path>
            </g>
        </g>
    </g>
</svg>