<?xml version="1.0" encoding="UTF-8"?>
<svg width="77px" height="95px" viewBox="0 0 77 95" version="1.1" xmlns="http://www.w3.org/2000/svg" xmlns:xlink="http://www.w3.org/1999/xlink">
    <!-- Generator: Sketch 60 (88103) - https://sketch.com -->
    <title>apple</title>
    <desc>Created with Sketch.</desc>
    <g id="Symbols" stroke="none" stroke-width="1" fill="none" fill-rule="evenodd">
        <g id="Icons/Mobile" transform="translate(-23.000000, -74.000000)" fill="#000000" fill-rule="nonzero">
            <g id="apple" transform="translate(23.000000, 74.000000)">
                <path d="M64.1410207,50.1092849 C64.2735626,64.3828964 76.6627476,69.1327944 76.8000031,69.1934208 C76.6952466,69.5284099 74.8204179,75.9624909 70.2727918,82.6084371 C66.3415691,88.3541942 62.2614784,94.0789036 55.8341299,94.1974672 C49.5186173,94.3138363 47.4878275,90.452352 40.2674086,90.452352 C33.0491707,90.452352 30.7928709,94.078894 24.8145348,94.3138363 C18.6105129,94.5486068 13.8862155,88.100561 9.92232276,82.3758519 C1.82258802,70.665766 -4.36728524,49.2859004 3.94414996,34.8541424 C8.07309365,27.6872727 15.4518281,23.1489116 23.4607847,23.0325338 C29.5529755,22.9163246 35.3032796,27.1311566 39.0275131,27.1311566 C42.7493852,27.1311566 49.7372285,22.0624517 57.0832904,22.8068551 C60.1586028,22.9348526 68.7910554,24.0491073 74.3341905,32.162818 C73.8875504,32.4397012 64.0339075,38.176023 64.1410207,50.1092984 M52.2717447,15.0596116 C55.5655015,11.07265 57.7823897,5.52243079 57.1775987,0 C52.4298957,0.190815075 46.6888561,3.1637374 43.2834344,7.14850546 C40.2315226,10.6772032 37.558734,16.3251089 38.2798986,21.7382388 C43.571771,22.1476639 48.9778258,19.0491086 52.2717447,15.0596181" id="Shape"></path>
            </g>
        </g>
    </g>
</svg>