<?xml version="1.0" encoding="UTF-8"?>
<svg width="100px" height="60px" viewBox="0 0 100 60" version="1.1" xmlns="http://www.w3.org/2000/svg" xmlns:xlink="http://www.w3.org/1999/xlink">
    <!-- Generator: Sketch 60 (88103) - https://sketch.com -->
    <title>aws</title>
    <desc>Created with Sketch.</desc>
    <g id="Symbols" stroke="none" stroke-width="1" fill="none" fill-rule="evenodd">
        <g id="icons/server" transform="translate(-63.000000, -126.000000)" fill-rule="nonzero">
            <g id="aws" transform="translate(63.000000, 126.000000)">
                <path d="M28.2329033,21.6209822 C28.2329033,22.8441876 28.3651417,23.8359758 28.596559,24.5632871 C28.8610358,25.2905984 29.1916319,26.084029 29.6544664,26.9435787 C29.8197644,27.2080556 29.8858836,27.4725324 29.8858836,27.7039496 C29.8858836,28.0345457 29.687526,28.3651417 29.2577511,28.6957378 L27.174996,30.0842412 C26.8774595,30.2825989 26.5799231,30.3817777 26.3154462,30.3817777 C25.9848502,30.3817777 25.6542541,30.2164797 25.323658,29.9189432 C24.8608236,29.4230491 24.4641083,28.8940954 24.1335122,28.3651417 C23.8029162,27.8031285 23.4723201,27.174996 23.1086644,26.414625 C20.5300152,29.4561087 17.2901738,30.9768506 13.3891403,30.9768506 C10.6121334,30.9768506 8.39713986,30.1834201 6.77721917,28.596559 C5.15729852,27.0096979 4.33080837,24.8938832 4.33080837,22.2491147 C4.33080837,19.4390482 5.32259652,17.1579354 7.33923247,15.4388359 C9.35586845,13.7197364 12.0336965,12.8601866 15.4388359,12.8601866 C16.5628625,12.8601866 17.7199487,12.9593655 18.9431541,13.1246635 C20.1663595,13.2899615 21.4226245,13.5544384 22.7450088,13.8519748 L22.7450088,11.4386236 C22.7450088,8.92609355 22.2160551,7.17393446 21.1912073,6.14908667 C20.1332999,5.12423888 18.3480812,4.62834482 15.8024916,4.62834482 C14.6454054,4.62834482 13.4552596,4.76058323 12.2320541,5.05811968 C11.0088487,5.35565612 9.8187029,5.71931181 8.66161671,6.18214627 C8.13266301,6.41356352 7.73594776,6.54580196 7.50453051,6.61192116 C7.27311326,6.67804036 7.10781526,6.71109997 6.97557681,6.71109997 C6.51274232,6.71109997 6.28132511,6.38050392 6.28132511,5.68625221 L6.28132511,4.06633152 C6.28132511,3.53737782 6.34744431,3.14066255 6.51274232,2.90924531 C6.67804036,2.67782807 6.97557681,2.44641083 7.43841131,2.21499359 C8.5954975,1.61992068 9.98400095,1.1240266 11.6039216,0.727311326 C13.2238423,0.297536452 14.9429418,0.0991788174 16.7612201,0.0991788174 C20.6953132,0.0991788174 23.5714989,0.991788174 25.4228369,2.77700689 C27.2411152,4.56222558 28.1667841,7.27311326 28.1667841,10.9096699 L28.1667841,21.6209822 L28.2329033,21.6209822 Z M14.8107034,26.6460423 C15.9016704,26.6460423 17.025697,26.4476846 18.2158428,26.0509694 C19.4059886,25.6542541 20.463896,24.9269428 21.3565053,23.9351546 C21.885459,23.3070221 22.2821743,22.6127704 22.4805319,21.8193398 C22.6788896,21.0259093 22.811128,20.0671807 22.811128,18.9431541 L22.811128,17.5546507 C21.8523994,17.3232334 20.8275516,17.1248758 19.7696442,16.9926374 C18.7117369,16.860399 17.6868891,16.7942798 16.6620413,16.7942798 C14.4470477,16.7942798 12.827127,17.2240546 11.73616,18.116664 C10.645193,19.0092733 10.1162394,20.2655383 10.1162394,21.9185186 C10.1162394,23.4723201 10.5129546,24.6294063 11.3394448,25.4228369 C12.1328753,26.249327 13.2899615,26.6460423 14.8107034,26.6460423 Z M41.3575668,30.2164797 C40.7624938,30.2164797 40.3657788,30.1173009 40.1013018,29.8858836 C39.8368248,29.687526 39.6054078,29.2246915 39.4070502,28.596559 L31.6380427,3.04148373 C31.4396851,2.38029162 31.3405063,1.95051674 31.3405063,1.7190995 C31.3405063,1.19014581 31.6049831,0.892609355 32.1339368,0.892609355 L35.3737782,0.892609355 C36.0019107,0.892609355 36.4316856,0.991788174 36.6631028,1.22320541 C36.9275797,1.42156305 37.1259373,1.88439753 37.3242949,2.51253004 L42.8783088,24.3979891 L48.0356072,2.51253004 C48.2009052,1.85133792 48.3992628,1.42156305 48.6637397,1.22320541 C48.9282167,1.02484778 49.3910512,0.892609355 49.9861238,0.892609355 L52.6308923,0.892609355 C53.2590248,0.892609355 53.6887997,0.991788174 53.9532767,1.22320541 C54.2177537,1.42156305 54.4491707,1.88439753 54.5814092,2.51253004 L59.8048267,24.6624659 L65.5241386,2.51253004 C65.7224962,1.85133792 65.9539136,1.42156305 66.1853307,1.22320541 C66.4498076,1.02484778 66.8795826,0.892609355 67.4746556,0.892609355 L70.5491986,0.892609355 C71.0781526,0.892609355 71.3756891,1.1570862 71.3756891,1.7190995 C71.3756891,1.88439753 71.3426292,2.04969556 71.3095696,2.24805319 C71.2765101,2.44641083 71.2103907,2.71088768 71.0781526,3.07454334 L63.1107876,28.6296186 C62.9124297,29.2908107 62.6810126,29.7205856 62.4165357,29.9189432 C62.1520587,30.1173009 61.7222841,30.2495393 61.1602707,30.2495393 L58.3171447,30.2495393 C57.6890122,30.2495393 57.2592372,30.1503605 56.9947602,29.9189432 C56.7302837,29.687526 56.4988662,29.2577511 56.3666277,28.596559 L51.2423888,7.27311326 L46.1512097,28.5634994 C45.9859117,29.2246915 45.7875542,29.6544664 45.5230772,29.8858836 C45.2586003,30.1173009 44.7957658,30.2164797 44.2006928,30.2164797 L41.3575668,30.2164797 Z M83.8391601,31.109089 C82.1200606,31.109089 80.4009611,30.9107314 78.7479811,30.5140161 C77.0950006,30.1173009 75.8056761,29.687526 74.9461261,29.1916319 C74.4171726,28.8940954 74.0535171,28.5634994 73.9212786,28.2659629 C73.7890401,27.9684265 73.7229211,27.6378304 73.7229211,27.340294 L73.7229211,25.6542541 C73.7229211,24.9600024 73.9873976,24.6294063 74.4832916,24.6294063 C74.6816496,24.6294063 74.8800071,24.6624659 75.0783646,24.7285851 C75.2767225,24.7947043 75.5742586,24.9269428 75.904855,25.0591812 C77.0288816,25.5550753 78.252087,25.9517906 79.5414116,26.2162674 C80.8637956,26.4807442 82.1531205,26.6129827 83.4755046,26.6129827 C85.5582596,26.6129827 87.1781805,26.249327 88.302207,25.5220157 C89.4262335,24.7947043 90.0213065,23.736797 90.0213065,22.3813531 C90.0213065,21.4556841 89.72377,20.6953132 89.1286971,20.0671807 C88.5336245,19.4390482 87.4095976,18.8770349 85.789677,18.3480812 L80.9960341,16.860399 C78.582683,16.100028 76.7974641,14.9760014 75.7064971,13.4883192 C74.6155301,12.0336965 74.0535171,10.4137758 74.0535171,8.69467631 C74.0535171,7.30617286 74.3510536,6.08296747 74.9461261,5.02506007 C75.5411991,3.96715268 76.3346296,3.04148373 77.326418,2.3141724 C78.3182061,1.55380147 79.4422326,0.991788174 80.764617,0.595072902 C82.0870011,0.198357635 83.4755046,0.0330596058 84.9301271,0.0330596058 C85.6574385,0.0330596058 86.4178095,0.0661192116 87.145121,0.165298029 C87.9054916,0.264476846 88.5997435,0.396715268 89.2939951,0.528953692 C89.9551875,0.694251721 90.58332,0.85954975 91.1783926,1.05790738 C91.7734655,1.25626502 92.2363,1.45462265 92.566896,1.65298029 C93.0297305,1.91745713 93.3603265,2.18193398 93.5586845,2.47947043 C93.757042,2.74394728 93.856221,3.10760294 93.856221,3.57043743 L93.856221,5.12423888 C93.856221,5.81849062 93.591744,6.18214627 93.09585,6.18214627 C92.831373,6.18214627 92.401598,6.04990787 91.839585,5.78543102 C89.9551875,4.92588127 87.8393725,4.49610638 85.4921405,4.49610638 C83.607743,4.49610638 82.1200606,4.79364283 81.095213,5.42177537 C80.0703651,6.04990787 79.5414116,7.00863642 79.5414116,8.36408026 C79.5414116,9.28974921 79.8720076,10.0831797 80.5331996,10.7113123 C81.1943916,11.3394448 82.4175971,11.9675773 84.1697565,12.5295906 L88.8642205,14.0172729 C91.244512,14.7776438 92.9636115,15.8355512 93.988459,17.190995 C95.013307,18.5464388 95.509201,20.1002403 95.509201,21.8193398 C95.509201,23.2409029 95.2116645,24.5302275 94.6496515,25.6542541 C94.0545785,26.7782807 93.261148,27.7700689 92.2363,28.5634994 C91.2114525,29.3899895 89.988247,29.9850624 88.566684,30.4148373 C87.0790016,30.8776718 85.5252001,31.109089 83.8391601,31.109089 Z" id="Shape" fill="#252F3E"></path>
                <path d="M90.0874256,47.1760573 C79.2108155,55.2095417 63.4083237,59.4742307 49.8208258,59.4742307 C30.778493,59.4742307 13.6205576,52.4325347 0.661192116,40.7294343 C-0.363655664,39.8037653 0.562013297,38.5475003 1.78521871,39.2748118 C15.8024916,47.4074747 33.0926654,52.3333558 50.9779122,52.3333558 C63.0446682,52.3333558 76.3015701,49.8208258 88.5005646,44.6635273 C90.318843,43.8370373 91.8726445,45.8536732 90.0874256,47.1760573 Z M94.6165919,42.0187588 C93.2280885,40.2335403 85.4260215,41.1592093 81.8886435,41.5889842 C80.8307361,41.7212223 80.6654381,40.7955537 81.6241666,40.1013018 C87.8393725,35.7374339 98.0547909,36.9936989 99.2449365,38.4483215 C100.435082,39.9360038 98.9143405,50.1514218 93.09585,55.0442437 C92.2032405,55.8046147 91.343691,55.4078992 91.740406,54.4161112 C93.0627904,51.1432102 96.005095,43.7709182 94.6165919,42.0187588 Z" id="Shape" fill="#FF9900"></path>
            </g>
        </g>
    </g>
</svg>