<?xml version="1.0" encoding="UTF-8"?>
<svg width="93px" height="61px" viewBox="0 0 93 61" version="1.1" xmlns="http://www.w3.org/2000/svg" xmlns:xlink="http://www.w3.org/1999/xlink">
    <!-- Generator: Sketch 60 (88103) - https://sketch.com -->
    <title>azure</title>
    <desc>Created with Sketch.</desc>
    <g id="Symbols" stroke="none" stroke-width="1" fill="none" fill-rule="evenodd">
        <g id="icons/server" transform="translate(-240.000000, -125.000000)" fill="#008CDB" fill-rule="nonzero">
            <g id="azure" transform="translate(240.000000, 125.000000)">
                <path d="M54.7201325,34.2717538 C52.416127,34.2717538 50.4000124,35.7116476 49.2480095,37.7277621 L15.2639272,37.7277621 C9.50391329,37.7277621 4.89590213,32.83186 4.89590213,27.0718461 C4.89590213,21.3118322 9.50391329,16.41593 15.2639272,16.41593 L20.1598294,16.41593 C20.1598294,15.2639272 20.7358308,14.1119245 21.0239412,12.9599217 C21.3118322,12.6720307 21.3118322,12.0958099 21.5999426,11.8079189 C23.9039481,7.4877987 28.5119593,4.60801116 33.6959719,4.60801116 C38.3039832,4.60801116 42.3359927,6.91201673 44.9281087,10.3680251 C46.3680026,9.79202372 47.8081157,9.21602233 49.53612,8.92813132 C46.3680026,3.45600837 40.6079887,0 33.6959719,0 C25.9198433,0 19.295937,4.89612155 16.41593,11.8081383 L15.2639272,11.8081383 C6.91201673,11.8076994 0,18.7197162 0,27.3597371 C0,35.999758 6.91201673,42.6236644 15.2639272,42.6236644 L49.53612,42.6236644 C50.4002317,44.6397789 52.416127,46.0796728 55.008243,46.0796728 C58.1763602,46.0796728 60.7682569,43.487776 60.7682569,40.0317676 C60.7682569,36.5757595 58.1761409,34.2717538 54.7201325,34.2717538 Z M73.7281786,22.4636155 C70.2721702,15.5515988 63.0722624,10.6556967 55.008243,10.6556967 C44.9281087,10.6556967 36.5761984,17.8556043 34.5600837,27.3597371 C29.6641815,27.9357385 25.3440613,30.5276351 22.7521648,34.2717538 L47.8083353,34.2717538 C49.5363393,31.9677482 52.1284553,30.8157454 55.008243,30.8157454 C60.1922555,30.8157454 64.2242654,35.1358656 64.2242654,40.3196589 C64.2242654,45.5034517 59.9041449,49.8235721 55.008243,49.8235721 C52.1282361,49.8235721 49.53612,48.3836783 47.8083353,46.3675637 L19.8719384,46.3675637 C21.0239412,54.4315831 27.9359579,60.7675985 35.9999774,60.7675985 L73.4400681,60.7675985 C83.8080933,60.7675985 92.1600037,52.4156882 92.1600037,41.7595524 C92.1600037,31.103417 83.8083126,22.7517259 73.7281786,22.4636155 Z" id="Shape"></path>
            </g>
        </g>
    </g>
</svg>