<?xml version="1.0" encoding="UTF-8"?>
<svg width="85px" height="68px" viewBox="0 0 85 68" version="1.1" xmlns="http://www.w3.org/2000/svg" xmlns:xlink="http://www.w3.org/1999/xlink">
    <!-- Generator: Sketch 60 (88103) - https://sketch.com -->
    <title>google-cloud</title>
    <desc>Created with Sketch.</desc>
    <g id="Symbols" stroke="none" stroke-width="1" fill="none" fill-rule="evenodd">
        <g id="icons/server" transform="translate(-418.000000, -125.000000)" fill-rule="nonzero">
            <g id="google-cloud" transform="translate(418.000000, 125.000000)">
                <path d="M56.1830645,18.7501392 L63.5265549,11.4066487 L64.0159449,8.31454851 C50.6341141,-3.85354224 29.3619828,-2.47381215 17.2988321,11.1934687 C13.9480119,14.9894589 11.4621217,19.7219892 10.1365116,24.6089595 L12.7666118,24.2383695 L27.4532627,21.8164993 L28.5871428,20.6568793 C35.1201532,13.4820188 46.1662438,12.5167688 53.7093843,18.6214391 L56.1830645,18.7501392 Z" id="Path" fill="#EA4335"></path>
                <path d="M73.9875885,24.3930075 C72.2996384,18.1771271 68.8343082,12.5892368 64.0159779,8.31474651 L53.7094173,18.6213071 C58.0614576,22.1773874 60.5407477,27.5346077 60.4344877,33.153518 L60.4344877,34.9830381 C65.500318,34.9830381 69.6074983,39.0898884 69.6074983,44.1557187 C69.6074983,49.221879 65.500318,53.2257693 60.4344877,53.2257693 L42.0630566,53.2257693 L40.2592765,55.1839894 L40.2592765,66.1861901 L42.0630566,67.9124202 L60.4344877,67.9124202 C73.6113885,68.0150502 84.3766492,57.5193995 84.4792792,44.3424987 C84.5413192,36.3555082 80.6034289,28.8678078 73.9875885,24.3930075" id="Path" fill="#4285F4"></path>
                <path d="M23.7172335,67.9125852 L42.0629246,67.9125852 L42.0629246,53.2256043 L23.7172335,53.2256043 C22.4101034,53.2252743 21.1442233,52.9444443 19.9555632,52.4012642 L17.3528531,53.1998643 L9.95788261,60.5433547 L9.31372257,63.0427749 C13.4608328,66.1741451 18.5207231,67.9350252 23.7172335,67.9125852" id="Path" fill="#34A853"></path>
                <path d="M23.7172335,20.2702625 C10.5400026,20.3489562 -0.0780780048,31.0950769 0.000462000028,44.2719777 C0.0443520027,51.6303182 3.48097221,58.5570186 9.31372257,63.0427089 L19.9555632,52.4011982 C15.3385329,50.3152681 13.2869228,44.8818178 15.3728529,40.2651175 C17.4584531,35.6484172 22.8922334,33.5968071 27.5086037,35.6824072 C29.5430538,36.6014572 31.1722639,38.2309973 32.091314,40.2651175 L42.7331546,29.6236068 C38.2052243,23.7043965 31.1696239,20.2436862 23.7172335,20.2702625" id="Path" fill="#FBBC05"></path>
            </g>
        </g>
    </g>
</svg>