<?xml version="1.0" encoding="UTF-8"?>
<svg width="60px" height="69px" viewBox="0 0 60 69" version="1.1" xmlns="http://www.w3.org/2000/svg" xmlns:xlink="http://www.w3.org/1999/xlink">
    <!-- Generator: Sketch 60 (88103) - https://sketch.com -->
    <title>html-5</title>
    <desc>Created with Sketch.</desc>
    <g id="Symbols" stroke="none" stroke-width="1" fill="none" fill-rule="evenodd">
        <g id="Icons/Frontend" transform="translate(-25.000000, -270.000000)" fill-rule="nonzero">
            <g id="html-5" transform="translate(25.000000, 270.000000)">
                <polygon id="Path" fill="#E44D26" points="59.7400885 0.542635169 54.3070938 61.4059527 29.8855807 68.1763984 5.53131006 61.4154882 0.104069649 0.542635169"></polygon>
                <polygon id="Path" fill="#F16529" points="29.9220791 63.0013584 49.6558546 57.5303856 54.2987091 5.51989354 29.9220791 5.51989354"></polygon>
                <polygon id="Path" fill="#EBEBEB" points="19.3605716 20.4516687 29.9220791 20.4516687 29.9220791 12.985781 11.2013796 12.985781 11.3800901 14.9887519 13.2150369 35.562483 29.9220791 35.562483 29.9220791 28.0967599 20.0428608 28.0967599"></polygon>
                <polygon id="Path" fill="#EBEBEB" points="21.0431131 39.295509 13.5486188 39.295509 14.5945763 51.0178944 29.887718 55.2633771 29.9220791 55.2538416 29.9220791 47.4862671 29.8893621 47.4949808 21.5746411 45.2498384"></polygon>
                <polygon id="Path" fill="#FFFFFF" points="29.8962671 35.562483 39.0895793 35.562483 38.2229901 45.2450705 29.8962671 47.4925145 29.8962671 55.2597603 45.2015751 51.0178944 45.313865 49.7565638 47.0682524 30.1015392 47.2504154 28.0967599 29.8962671 28.0967599"></polygon>
                <polygon id="Path" fill="#FFFFFF" points="29.8962671 20.4334195 29.8962671 20.4516687 47.9297453 20.4516687 48.0795202 18.773566 48.4196782 14.9887519 48.5982244 12.985781 29.8962671 12.985781"></polygon>
            </g>
        </g>
    </g>
</svg>