<?xml version="1.0" encoding="UTF-8"?>
<svg width="77px" height="104px" viewBox="0 0 77 104" version="1.1" xmlns="http://www.w3.org/2000/svg" xmlns:xlink="http://www.w3.org/1999/xlink">
    <!-- Generator: Sketch 60 (88103) - https://sketch.com -->
    <title>java</title>
    <desc>Created with Sketch.</desc>
    <g id="Symbols" stroke="none" stroke-width="1" fill="none" fill-rule="evenodd">
        <g id="Icons/Backend" transform="translate(-168.000000, -81.000000)" fill-rule="nonzero">
            <g id="java" transform="translate(168.000000, 81.000000)">
                <path d="M24.7661857,80.2417604 C24.7661857,80.2417604 20.8066568,82.544364 27.5840476,83.3235348 C35.7946661,84.2602158 39.9910183,84.1258854 49.0391758,82.4133852 C49.0391758,82.4133852 51.4180208,83.9049807 54.7402495,85.1968966 C34.4566706,93.8900983 8.83451381,84.6933679 24.7661857,80.2417604" id="Path" fill="#5382A1"></path>
                <path d="M22.2876402,68.8977015 C22.2876402,68.8977015 17.8466451,72.185021 24.6290628,72.8865542 C33.3999025,73.7913977 40.3264249,73.865405 52.3119729,71.5574953 C52.3119729,71.5574953 53.969736,73.2381584 56.5764676,74.157245 C32.0524114,81.3284105 4.73702419,74.7227724 22.2876402,68.8977015" id="Path" fill="#5382A1"></path>
                <path d="M43.1825471,49.6544135 C48.180412,55.408549 41.8694069,60.586545 41.8694069,60.586545 C41.8694069,60.586545 54.5598394,54.0353649 48.7316965,45.8317284 C43.2883916,38.1813309 39.1141021,34.3801499 61.712014,21.2741594 C61.712014,21.2741594 26.2407458,30.1332492 43.1825471,49.6544135" id="Path" fill="#E76F00"></path>
                <path d="M70.0092073,88.6325096 C70.0092073,88.6325096 72.9393368,91.0468224 66.7822107,92.9145985 C55.0742596,96.4613624 18.0524691,97.5323733 7.76797123,93.0559105 C4.0709587,91.4475789 11.0039044,89.215631 13.1847453,88.7472908 C15.4591424,88.254095 16.7588777,88.345976 16.7588777,88.345976 C12.6474245,85.4496382 -9.8158782,94.0330858 5.34863148,96.4912445 C46.7044558,103.197979 80.7363524,93.4711891 70.0092073,88.6325096" id="Path" fill="#5382A1"></path>
                <path d="M26.6702672,57.1439498 C26.6702672,57.1439498 7.83862723,61.6167819 20.0015135,63.2410324 C25.1370599,63.9286018 35.37464,63.773047 44.910687,62.9740477 C52.704072,62.3166397 60.5295732,60.9188796 60.5295732,60.9188796 C60.5295732,60.9188796 57.7815296,62.095735 55.7933869,63.4532797 C36.6701862,68.4827022 -0.27229092,66.1429553 10.3629735,60.9984723 C19.3572313,56.6507543 26.6702672,57.1439498 26.6702672,57.1439498" id="Path" fill="#5382A1"></path>
                <path d="M60.4519356,76.0266969 C79.8915524,65.9251226 70.9034383,56.2176022 64.6298558,57.5254364 C63.0921799,57.845483 62.4065653,58.1228009 62.4065653,58.1228009 C62.4065653,58.1228009 62.977399,57.2285696 64.0676797,56.8414976 C76.4788395,52.4781402 86.0238229,69.7106647 60.061233,76.5358113 C60.061233,76.5360903 60.3620097,76.2671505 60.4519356,76.0266969" id="Path" fill="#5382A1"></path>
                <path d="M48.7316965,0.111429823 C48.7316965,0.111429823 59.4976605,10.8810244 38.5206474,27.4416186 C21.6992125,40.7260642 34.6848362,48.3004993 38.5136655,56.954603 C28.6947153,48.0955132 21.4889201,40.2968221 26.3231312,33.0385234 C33.4186138,22.3839892 53.0755047,17.2182814 48.7316965,0.111429823" id="Path" fill="#E76F00"></path>
                <path d="M28.5804928,103.399614 C47.2401007,104.594064 75.8940423,102.7369 76.572675,93.9076924 C76.572675,93.9076924 75.2681922,97.2547764 61.1515137,99.9128941 C45.2251479,102.910049 25.5822207,102.560121 13.9317998,100.639283 C13.9317998,100.639003 16.316789,102.613182 28.5804928,103.399614" id="Path" fill="#5382A1"></path>
            </g>
        </g>
    </g>
</svg>