<svg xmlns="http://www.w3.org/2000/svg" xmlns:xlink="http://www.w3.org/1999/xlink" width="60px" height="60px" viewBox="0 0 60 60"><title>javascript</title><desc>Created with Sketch.</desc><g id="Symbols" stroke="none" stroke-width="1" fill="none" fill-rule="evenodd"><g id="Icons/Frontend" transform="translate(-470.000000, -107.000000)" fill-rule="nonzero"><g transform="translate(470.000000, 107.000000)"><polygon id="Path" fill="#F7DF1E" points="0 0 59.8441558 0 59.8441558 59.8441558 0 59.8441558"></polygon><path d="M15.7351184,50.0101462 L20.3149061,47.2386018 C21.1984148,48.8050939 22.0021314,50.1304996 23.9299682,50.1304996 C25.7779176,50.1304996 26.9429788,49.40762 26.9429788,46.5958947 L26.9429788,27.4742619 L32.5668097,27.4742619 L32.5668097,46.6754019 C32.5668097,52.500233 29.1524631,55.1515191 24.1710545,55.1515191 C19.6721989,55.1515191 17.0607139,52.8214916 15.7351184,50.0096712" id="Path" fill="#000000"></path><path d="M35.6215212,49.4075251 L40.2006441,46.756239 C41.4060765,48.7248267 42.9727584,50.1708705 45.7443977,50.1708705 C48.0746153,50.1708705 49.560555,49.0058093 49.560555,47.3989463 C49.560555,45.4707295 48.0341492,44.7877461 45.4631302,43.663341 L44.0575525,43.0603399 C40.0000238,41.3333135 37.3084616,39.1641055 37.3084616,34.5845076 C37.3084616,30.3665395 40.5220928,27.1527183 45.5436823,27.1527183 C49.1189433,27.1527183 51.6898671,28.3981418 53.5375316,31.652049 L49.1588392,34.4638695 C48.1946835,32.7366531 47.1505456,32.0538598 45.5437774,32.0538598 C43.8967332,32.0538598 42.8522152,33.0982826 42.8522152,34.4638695 C42.8522152,36.1510946 43.8967332,36.8341728 46.306743,37.8786909 L47.7126056,38.481217 C52.4930138,40.5300719 55.1845758,42.6187281 55.1845758,47.318584 C55.1845758,52.3804498 51.2076944,55.1519942 45.8650361,55.1519942 C40.642826,55.1519942 37.2683756,52.6615272 35.6215212,49.4075251" id="Path" fill="#000000"></path></g></g></g></svg>