<svg xmlns="http://www.w3.org/2000/svg" width="132" height="41" viewBox="0 0 132 41" fill="none"><path d="M120.348 40.184C119.996 40.184 119.667 40.091 119.363 39.9292L116.237 38.0936C115.767 37.8388 116.002 37.7447 116.143 37.6981C116.777 37.4877 116.896 37.4434 117.553 37.0711C117.624 37.0246 117.719 37.049 117.788 37.0933L120.184 38.5113C120.278 38.5578 120.395 38.5578 120.466 38.5113L129.842 33.1429C129.937 33.0964 129.983 33.0033 129.983 32.8881V22.1736C129.983 22.0573 129.935 21.9631 129.842 21.9188L120.466 16.5737C120.372 16.5272 120.255 16.5272 120.184 16.5737L110.808 21.9188C110.713 21.9653 110.667 22.0816 110.667 22.1736V32.8881C110.667 32.9812 110.715 33.0986 110.808 33.1429L113.369 34.6074C114.756 35.3053 115.626 34.4911 115.626 33.6769V23.1019C115.626 22.9623 115.743 22.8228 115.908 22.8228H117.106C117.247 22.8228 117.389 22.9391 117.389 23.1019V33.6769C117.389 35.5125 116.379 36.5826 114.615 36.5826C114.075 36.5826 113.652 36.5826 112.453 36.001L109.986 34.6052C109.374 34.2562 109 33.606 109 32.9081V22.1935C109 21.4956 109.377 20.8454 109.986 20.4964L119.363 15.1281C119.95 14.8024 120.749 14.8024 121.337 15.1281L130.714 20.4964C131.325 20.8454 131.7 21.4956 131.7 22.1935V32.9081C131.7 33.606 131.323 34.2562 130.714 34.6052L121.337 39.9735C121.027 40.1117 120.69 40.1831 120.35 40.1829L120.348 40.184ZM123.228 32.8172C119.116 32.8172 118.269 30.9584 118.269 29.3775C118.269 29.238 118.387 29.0984 118.552 29.0984H119.773C119.914 29.0984 120.031 29.1914 120.031 29.3199C120.22 30.5518 120.76 31.1555 123.251 31.1555C125.225 31.1555 126.071 30.7124 126.071 29.6678C126.071 29.064 125.836 28.622 122.757 28.3196C120.195 28.0648 118.597 27.5065 118.597 25.4837C118.597 23.6004 120.195 22.4849 122.875 22.4849C125.883 22.4849 127.364 23.5074 127.552 25.7385C127.552 25.8083 127.53 25.878 127.481 25.9489C127.433 25.9955 127.364 26.042 127.293 26.042H126.071C125.954 26.042 125.836 25.9489 125.813 25.8315C125.531 24.5531 124.803 24.1344 122.876 24.1344C120.714 24.1344 120.455 24.8766 120.455 25.436C120.455 26.1096 120.76 26.3189 123.674 26.6912C126.554 27.0634 127.927 27.5973 127.927 29.5969C127.905 31.6419 126.211 32.8039 123.227 32.8039L123.228 32.8172Z" fill="#539E43"></path><path d="M22.3277 21.9408C22.3277 21.522 22.0929 21.1276 21.7163 20.9183L11.7514 15.2464C11.5853 15.1533 11.3992 15.1068 11.2109 15.0836H11.1168C10.9285 15.0836 10.7402 15.1533 10.5763 15.2464L0.611384 20.9183C0.234807 21.1288 0 21.522 0 21.9408L0.0221516 37.1873C0.0215865 37.2923 0.0497709 37.3956 0.103653 37.4858C0.157536 37.576 0.235064 37.6498 0.327844 37.6991C0.516132 37.8154 0.750939 37.8154 0.914861 37.6991L6.83709 34.3535C7.21367 34.1431 7.44848 33.7498 7.44848 33.331V26.1969C7.44848 25.7781 7.68328 25.3838 8.05986 25.1744L10.5741 23.7343C10.7624 23.618 10.9728 23.5714 11.1855 23.5714C11.3935 23.5643 11.5988 23.6212 11.7736 23.7343L14.2878 25.1744C14.6644 25.3849 14.8992 25.7781 14.8992 26.1969V33.331C14.8992 33.7498 15.134 34.1442 15.5106 34.3535L21.4328 37.6991C21.6211 37.8154 21.8559 37.8154 22.0442 37.6991C22.137 37.6498 22.2145 37.576 22.2684 37.4858C22.3222 37.3956 22.3504 37.2923 22.3499 37.1873L22.3277 21.9408ZM70.225 0.953705C70.1338 0.907735 70.0331 0.883789 69.931 0.883789C69.8288 0.883789 69.7281 0.907735 69.6369 0.953705C69.4486 1.07002 69.3312 1.25613 69.3312 1.46329V16.5702C69.3312 16.7098 69.2603 16.8494 69.1208 16.9424C69.0555 16.9768 68.9829 16.9947 68.9092 16.9947C68.8355 16.9947 68.7629 16.9768 68.6977 16.9424L66.2056 15.5245C65.8346 15.314 65.3783 15.314 65.0072 15.5245L55.0423 21.2185C54.6657 21.429 54.4309 21.8222 54.4309 22.241V33.6069C54.4309 34.0256 54.6657 34.42 55.0423 34.6294L65.0072 40.3234C65.3783 40.5339 65.8346 40.5339 66.2056 40.3234L76.1705 34.6294C76.5471 34.4189 76.7819 34.0256 76.7819 33.6069V5.2763C76.7819 4.83318 76.5471 4.43992 76.1705 4.23054L70.225 0.953705ZM69.3091 29.867C69.3091 29.9833 69.2625 30.0775 69.1684 30.1218L65.7604 32.0737C65.664 32.1202 65.5499 32.1202 65.4547 32.0737L62.0466 30.1218C61.9525 30.0753 61.906 29.9589 61.906 29.867V25.962C61.906 25.8457 61.9525 25.7516 62.0466 25.7072L65.4547 23.7553C65.551 23.7088 65.6651 23.7088 65.7604 23.7553L69.1684 25.7072C69.2625 25.7538 69.3091 25.8701 69.3091 25.962V29.867ZM103.386 25.8679C103.763 25.6574 103.973 25.2641 103.973 24.8454V22.0792C103.971 21.8727 103.915 21.6703 103.812 21.4913C103.709 21.3123 103.562 21.1626 103.385 21.0567L93.4909 15.3849C93.1198 15.1744 92.6635 15.1744 92.2925 15.3849L82.3276 21.0789C81.951 21.2894 81.7162 21.6826 81.7162 22.1014V33.4673C81.7162 33.8861 81.951 34.2804 82.3276 34.4898L92.2216 40.0675C92.5981 40.278 93.0445 40.278 93.3956 40.0675L99.3876 36.7663C99.4804 36.717 99.5579 36.6432 99.6118 36.553C99.6657 36.4628 99.6939 36.3596 99.6933 36.2545C99.6939 36.1494 99.6657 36.0462 99.6118 35.956C99.5579 35.8658 99.4804 35.792 99.3876 35.7427L89.3751 30.0487C89.1868 29.9324 89.0694 29.7462 89.0694 29.5391V25.9942C89.0688 25.8891 89.097 25.7858 89.1509 25.6956C89.2048 25.6054 89.2823 25.5317 89.3751 25.4824L92.5007 23.7154C92.689 23.5991 92.9249 23.5991 93.1121 23.7154L96.2377 25.4824C96.4259 25.5987 96.5433 25.7848 96.5433 25.9942V28.7836C96.543 28.8885 96.5713 28.9915 96.6251 29.0815C96.679 29.1715 96.7564 29.245 96.849 29.2943C97.0373 29.4106 97.2721 29.4106 97.4604 29.2943L103.383 25.8778L103.386 25.8679Z" fill="#212529"></path><path d="M92.74 25.3328C92.8109 25.2863 92.9039 25.2863 92.9748 25.3328L94.8798 26.4251C94.9507 26.4716 94.9972 26.5414 94.9972 26.6356V28.8201C94.9974 28.8622 94.9867 28.9036 94.9661 28.9403C94.9455 28.977 94.9158 29.0077 94.8798 29.0295L92.9748 30.1218C92.9039 30.1683 92.8109 30.1683 92.74 30.1218L90.8349 29.0295C90.799 29.0077 90.7692 28.977 90.7487 28.9403C90.7281 28.9036 90.7174 28.8622 90.7175 28.8201V26.6356C90.7175 26.5425 90.7641 26.4727 90.8349 26.4251L92.74 25.3328Z" fill="#539E43"></path><path d="M38.99 15.4325C38.6189 15.222 38.1626 15.222 37.7916 15.4325L27.8976 21.08C27.521 21.2905 27.3105 21.6838 27.3105 22.1025V33.4219C27.313 33.6284 27.3683 33.8309 27.4713 34.0099C27.5742 34.1889 27.7214 34.3385 27.8987 34.4444L37.7927 40.0919C38.1637 40.3024 38.62 40.3024 38.9911 40.0919L48.8851 34.4444C49.2617 34.2339 49.4721 33.8406 49.4721 33.4219V22.1025C49.4697 21.896 49.4144 21.6936 49.3114 21.5146C49.2084 21.3355 49.0613 21.1859 48.884 21.08L38.99 15.4325Z" fill="url(#paint0_linear_61_285)"></path><mask id="mask0_61_285" style="mask-type:alpha" maskUnits="userSpaceOnUse" x="27" y="15" width="23" height="26"><path d="M38.99 15.4325C38.6189 15.222 38.1626 15.222 37.7916 15.4325L27.8976 21.08C27.521 21.2905 27.3105 21.6838 27.3105 22.1025V33.4219C27.313 33.6284 27.3683 33.8309 27.4713 34.0099C27.5742 34.1889 27.7214 34.3385 27.8987 34.4444L37.7927 40.0919C38.1637 40.3024 38.62 40.3024 38.9911 40.0919L48.8851 34.4444C49.2617 34.2339 49.4721 33.8406 49.4721 33.4219V22.1025C49.4697 21.896 49.4144 21.6936 49.3114 21.5146C49.2084 21.3355 49.0613 21.1859 48.884 21.08L38.99 15.4325Z" fill="white"></path></mask><g mask="url(#mask0_61_285)"><path d="M48.9082 21.08L38.9566 15.4325C38.868 15.3727 38.7683 15.345 38.662 15.3173L27.522 34.1885C27.6139 34.2993 27.7258 34.3946 27.8509 34.4677L37.7926 40.1152C38.075 40.278 38.4039 40.3257 38.7085 40.2315L49.1685 21.3127C49.0936 21.2232 49.0063 21.1449 48.9093 21.08H48.9082Z" fill="url(#paint1_linear_61_285)"></path></g><mask id="mask1_61_285" style="mask-type:alpha" maskUnits="userSpaceOnUse" x="27" y="15" width="23" height="26"><path d="M38.99 15.4325C38.6189 15.222 38.1626 15.222 37.7916 15.4325L27.8976 21.08C27.521 21.2905 27.3105 21.6838 27.3105 22.1025V33.4219C27.313 33.6284 27.3683 33.8309 27.4713 34.0099C27.5742 34.1889 27.7214 34.3385 27.8987 34.4444L37.7927 40.0919C38.1637 40.3024 38.62 40.3024 38.9911 40.0919L48.8851 34.4444C49.2617 34.2339 49.4721 33.8406 49.4721 33.4219V22.1025C49.4697 21.896 49.4144 21.6936 49.3114 21.5146C49.2084 21.3355 49.0613 21.1859 48.884 21.08L38.99 15.4325Z" fill="white"></path></mask><g mask="url(#mask1_61_285)"><path fill-rule="evenodd" clip-rule="evenodd" d="M48.9315 34.4444C49.214 34.2815 49.4255 34.0013 49.5185 33.7022L38.6133 15.2951C38.3309 15.2486 38.0263 15.273 37.7671 15.4347L27.8975 21.0579L38.5435 40.2558C38.6982 40.2307 38.8485 40.1837 38.9899 40.1163L48.9315 34.4444Z" fill="url(#paint2_linear_61_285)"></path><path d="M48.9317 34.4444L39.0145 40.0919C38.8744 40.1626 38.7236 40.2098 38.5681 40.2315L38.7564 40.5804L49.7547 34.2826V34.1431L49.4722 33.6778C49.4257 34.0035 49.2142 34.2815 48.9317 34.4444Z" fill="url(#paint3_linear_61_285)"></path><path d="M48.9317 34.4444L39.0145 40.0919C38.8744 40.1626 38.7236 40.2098 38.5681 40.2315L38.7564 40.5804L49.7547 34.2826V34.1431L49.4722 33.6778C49.4257 34.0035 49.2142 34.2815 48.9317 34.4444Z" fill="url(#paint4_linear_61_285)"></path></g><defs><linearGradient id="paint0_linear_61_285" x1="41.5671" y1="19.6421" x2="32.9916" y2="36.9335" gradientUnits="userSpaceOnUse"><stop stop-color="#41873F"></stop><stop offset="0.3288" stop-color="#418B3D"></stop><stop offset="0.6352" stop-color="#419637"></stop><stop offset="0.9319" stop-color="#3FA92D"></stop><stop offset="1" stop-color="#3FAE2A"></stop></linearGradient><linearGradient id="paint1_linear_61_285" x1="37.2506" y1="29.0887" x2="58.2987" y2="13.7138" gradientUnits="userSpaceOnUse"><stop offset="0.1376" stop-color="#41873F"></stop><stop offset="0.4032" stop-color="#54A044"></stop><stop offset="0.7136" stop-color="#66B848"></stop><stop offset="0.9081" stop-color="#6CC04A"></stop></linearGradient><linearGradient id="paint2_linear_61_285" x1="26.9485" y1="27.7643" x2="49.8426" y2="27.7643" gradientUnits="userSpaceOnUse"><stop offset="0.09192" stop-color="#6CC04A"></stop><stop offset="0.2864" stop-color="#66B848"></stop><stop offset="0.5968" stop-color="#54A044"></stop><stop offset="0.8624" stop-color="#41873F"></stop></linearGradient><linearGradient id="paint3_linear_61_285" x1="26.9496" y1="37.1481" x2="49.8438" y2="37.1481" gradientUnits="userSpaceOnUse"><stop offset="0.09192" stop-color="#6CC04A"></stop><stop offset="0.2864" stop-color="#66B848"></stop><stop offset="0.5968" stop-color="#54A044"></stop><stop offset="0.8624" stop-color="#41873F"></stop></linearGradient><linearGradient id="paint4_linear_61_285" x1="53.1792" y1="30.2704" x2="46.0776" y2="44.5921" gradientUnits="userSpaceOnUse"><stop stop-color="#41873F"></stop><stop offset="0.3288" stop-color="#418B3D"></stop><stop offset="0.6352" stop-color="#419637"></stop><stop offset="0.9319" stop-color="#3FA92D"></stop><stop offset="1" stop-color="#3FAE2A"></stop></linearGradient></defs></svg>