<svg xmlns="http://www.w3.org/2000/svg" width="72" height="36" viewBox="0 0 72 36" fill="none"><path d="M12.4652 22.8306C14.6474 22.8306 16.2757 22.4299 17.3052 21.6412C18.3244 20.8608 19.0295 19.5076 19.3977 17.6203C19.7419 15.8571 19.6105 14.626 19.0086 13.9603C18.3932 13.2822 17.0601 12.9379 15.049 12.9379H11.5618L9.62893 22.8316H12.4631L12.4652 22.8306ZM1.06077 35.0165C0.980915 35.0166 0.902014 34.9991 0.829708 34.9652C0.757401 34.9313 0.69347 34.8818 0.642483 34.8203C0.538172 34.6951 0.496448 34.5324 0.527742 34.3738L5.64944 8.15534C5.67408 8.03217 5.74068 7.92136 5.83789 7.84183C5.9351 7.7623 6.05689 7.71897 6.18248 7.71924H17.2239C20.6943 7.71924 23.2771 8.65613 24.9012 10.5049C26.5337 12.362 27.0375 14.9598 26.3991 18.2254C26.1551 19.5122 25.7068 20.7517 25.0712 21.8968C24.4495 23.0027 23.6276 24.0283 22.6283 24.9433C21.4318 26.0575 20.0778 26.8651 18.607 27.3398C17.1602 27.8093 15.3004 28.0461 13.0827 28.0461H8.61189L7.33512 34.5793C7.31073 34.7025 7.24437 34.8134 7.14736 34.8931C7.05035 34.9729 6.92869 35.0165 6.80313 35.0165H1.06077Z" fill="#212529"></path><path d="M39.5652 28.0472C39.4854 28.0474 39.4065 28.0298 39.3341 27.9959C39.2618 27.962 39.1979 27.9126 39.1469 27.8511C39.0426 27.7259 39.0009 27.5631 39.0322 27.4046L41.2989 15.8029C41.5148 14.7001 41.4616 13.9083 41.1497 13.5734C40.9588 13.3689 40.3851 13.0256 38.688 13.0256H34.5822L31.7345 27.609C31.7101 27.7324 31.6436 27.8435 31.5464 27.9232C31.4491 28.0029 31.3272 28.0464 31.2015 28.0462H25.5061C25.4262 28.0463 25.3473 28.0288 25.275 27.9949C25.2027 27.961 25.1388 27.9115 25.0878 27.8501C24.9835 27.7249 24.9418 27.5621 24.9731 27.4035L30.0948 1.18506C30.1194 1.06189 30.186 0.951086 30.2832 0.871553C30.3804 0.792021 30.5022 0.748693 30.6278 0.74896H36.3232C36.4031 0.74884 36.482 0.766359 36.5543 0.800264C36.6266 0.834171 36.6905 0.883627 36.7415 0.945103C36.8458 1.0703 36.8875 1.23306 36.8562 1.39164L35.6201 7.71933H40.0367C43.4018 7.71933 45.6831 8.30985 47.012 9.52426C48.3681 10.7627 48.7895 12.7429 48.2679 15.4085L45.8844 27.609C45.86 27.7324 45.7935 27.8435 45.6962 27.9232C45.599 28.0029 45.4771 28.0464 45.3514 28.0462H39.5652V28.0472Z" fill="#212529"></path><path d="M57.2814 22.8307C59.4636 22.8307 61.0919 22.4301 62.1215 21.6413C63.1406 20.8609 63.8457 19.5077 64.215 17.6204C64.5592 15.8572 64.4278 14.6261 63.8249 13.9604C63.2094 13.2823 61.8763 12.938 59.8652 12.938H56.3801L54.4473 22.8317H57.2814V22.8307ZM45.876 35.0176C45.7961 35.0178 45.7172 35.0002 45.6449 34.9663C45.5726 34.9324 45.5087 34.883 45.4577 34.8215C45.3534 34.6963 45.3116 34.5335 45.3429 34.375L50.4646 8.1565C50.4893 8.03333 50.5559 7.92252 50.6531 7.84299C50.7503 7.76346 50.8721 7.72013 50.9977 7.7204H62.0391C65.5095 7.7204 68.0923 8.65729 69.7164 10.506C71.3489 12.3631 71.8527 14.961 71.2143 18.2266C70.9535 19.5568 70.5081 20.7931 69.8864 21.899C69.2647 23.0049 68.4427 24.0305 67.4434 24.9455C66.247 26.0597 64.893 26.8673 63.4222 27.342C61.9754 27.8115 60.1155 28.0483 57.8979 28.0483H53.4281L52.1524 34.5815C52.128 34.7049 52.0615 34.8159 51.9642 34.8957C51.867 34.9754 51.7451 35.0189 51.6194 35.0187H45.876V35.0176Z" fill="#212529"></path></svg>