<?xml version="1.0" encoding="UTF-8"?>
<svg width="77px" height="77px" viewBox="0 0 77 77" version="1.1" xmlns="http://www.w3.org/2000/svg" xmlns:xlink="http://www.w3.org/1999/xlink">
    <!-- Generator: Sketch 60 (88103) - https://sketch.com -->
    <title>python</title>
    <desc>Created with Sketch.</desc>
    <defs>
        <linearGradient x1="12.9593594%" y1="12.0393928%" x2="79.6388325%" y2="78.2008538%" id="linearGradient-1">
            <stop stop-color="#387EB8" offset="0%"></stop>
            <stop stop-color="#366994" offset="100%"></stop>
        </linearGradient>
        <linearGradient x1="19.127525%" y1="20.5791813%" x2="90.7415328%" y2="88.4290372%" id="linearGradient-2">
            <stop stop-color="#FFE052" offset="0%"></stop>
            <stop stop-color="#FFC331" offset="100%"></stop>
        </linearGradient>
    </defs>
    <g id="Symbols" stroke="none" stroke-width="1" fill="none" fill-rule="evenodd">
        <g id="Icons/Backend" transform="translate(-427.000000, -105.000000)" fill-rule="nonzero">
            <g id="python" transform="translate(427.000000, 105.000000)">
                <path d="M38.0747613,0.0216826656 C18.6250757,0.0216826656 19.8396394,8.45623978 19.8396394,8.45623978 L19.8613221,17.1943541 L38.4216843,17.1943541 L38.4216843,19.8179567 L12.4892156,19.8179567 C12.4892156,19.8179567 0.0433653311,18.4064839 0.0433653311,38.031396 C0.0433653311,57.6563042 10.906381,56.9603636 10.906381,56.9603636 L17.3894981,56.9603636 L17.3894981,47.8536439 C17.3894981,47.8536439 17.0400416,36.9906282 28.0790525,36.9906282 L46.4876358,36.9906282 C46.4876358,36.9906282 56.8302677,37.1578173 56.8302677,26.9949192 L56.8302677,10.190853 C56.8302677,10.1908516 58.4005646,0.0216826656 38.0747613,0.0216826656 L38.0747613,0.0216826656 L38.0747613,0.0216826656 Z M27.8405432,5.89768514 C29.6871632,5.89768514 31.1796738,7.39019567 31.1796738,9.23681572 C31.1796738,11.0834358 29.6871632,12.5759463 27.8405432,12.5759463 C25.9939231,12.5759463 24.5014126,11.0834358 24.5014126,9.23681572 C24.5014126,7.39019567 25.9939231,5.89768514 27.8405432,5.89768514 L27.8405432,5.89768514 L27.8405432,5.89768514 Z" id="Shape" fill="url(#linearGradient-1)"></path>
                <path d="M38.6271318,76.2378843 C58.0768232,76.2378843 56.862254,67.803327 56.862254,67.803327 L56.8405715,59.0652128 L38.2802091,59.0652128 L38.2802091,56.4416101 L64.2126779,56.4416101 C64.2126779,56.4416101 76.6585281,57.853079 76.6585281,38.2281639 C76.6585281,18.6032577 65.7955124,19.2991984 65.7955124,19.2991984 L59.3123952,19.2991984 L59.3123952,28.4059161 C59.3123952,28.4059161 59.6618574,39.2689318 48.6228409,39.2689318 L30.2142558,39.2689318 C30.2142558,39.2689318 19.8716243,39.101743 19.8716243,49.2646478 L19.8716243,66.068714 C19.8716243,66.068714 18.3013275,76.2378843 38.6271318,76.2378843 L38.6271318,76.2378843 L38.6271318,76.2378843 Z M48.8613499,70.3618819 C47.0147296,70.3618819 45.5222196,68.8693719 45.5222196,67.0227513 C45.5222196,65.1761303 47.0147296,63.6836206 48.8613499,63.6836206 C50.7079709,63.6836206 52.2004806,65.1761303 52.2004806,67.0227513 C52.2004806,68.8693719 50.7079709,70.3618819 48.8613499,70.3618819 L48.8613499,70.3618819 L48.8613499,70.3618819 Z" id="Shape" fill="url(#linearGradient-2)"></path>
            </g>
        </g>
    </g>
</svg>