<?xml version="1.0" encoding="UTF-8"?>
<svg width="91px" height="87px" viewBox="0 0 91 87" version="1.1" xmlns="http://www.w3.org/2000/svg" xmlns:xlink="http://www.w3.org/1999/xlink">
    <!-- Generator: Sketch 60 (88103) - https://sketch.com -->
    <title>react</title>
    <desc>Created with Sketch.</desc>
    <g id="Symbols" stroke="none" stroke-width="1" fill="none" fill-rule="evenodd">
        <g id="Icons/Mobile" transform="translate(-273.000000, -93.000000)" fill="#00D8FF" fill-rule="nonzero">
            <g id="react" transform="translate(273.000000, 93.000000)">
                <path d="M70.1450168,22.1470921 C69.3483119,21.872866 68.5227625,21.6134037 67.6727434,21.3680219 C67.812454,20.7978338 67.9406812,20.2350276 68.0546917,19.6817907 C69.9261554,10.5974681 68.7025271,3.27907447 64.5242007,0.869547883 C60.5177098,-1.44086904 53.9654,0.968110739 47.3478824,6.72713355 C46.7115299,7.28091728 46.0734002,7.86723634 45.4355446,8.48171617 C45.0105346,8.07516152 44.5862089,7.68227721 44.1629767,7.30648073 C37.2276247,1.14855863 30.276005,-1.44647387 26.1017797,0.970024583 C22.0991167,3.28713997 20.9137652,10.1671271 22.598356,18.7764069 C22.7610325,19.6079711 22.9511863,20.45717 23.1662201,21.3205859 C22.1823688,21.5998701 21.2325566,21.8976092 20.3237552,22.21435 C12.1927991,25.0491595 7,29.492006 7,34.1003999 C7,38.8599876 12.5744738,43.6339286 21.0434963,46.5286137 C21.7118372,46.7570446 22.4053314,46.9730353 23.1200145,47.1780898 C22.8880296,48.1119079 22.686256,49.0269973 22.516881,49.9195313 C20.9106211,58.3793948 22.1650075,65.0968418 26.1570077,67.3993302 C30.2803795,69.777142 37.2005572,67.3330293 43.939057,61.4427717 C44.4716518,60.9771612 45.0061603,60.4833903 45.5416258,59.965833 C46.2356672,60.6341736 46.9286141,61.2666981 47.6178707,61.859989 C54.1448909,67.4767041 60.5913928,69.7447435 64.5797019,67.4358303 C68.6989727,65.051183 70.037705,57.8350433 68.299663,49.0554319 C68.1669244,48.3849037 68.0124502,47.6998849 67.8389743,47.0027002 C68.3249533,46.8590248 68.8020467,46.7107024 69.2672471,46.5565014 C78.0716021,43.6393967 83.8000031,38.923554 83.8000031,34.1003999 C83.8000031,29.4753284 78.4397426,25.0025438 70.1450168,22.1470921 L70.1450168,22.1470921 Z M68.2354129,43.4422712 C67.8154615,43.5812978 67.3845736,43.7156771 66.9454837,43.8459548 C65.9735256,40.7689078 64.661724,37.496922 63.0564209,34.1163944 C64.5883146,30.8163843 65.8493991,27.58623 66.7941535,24.5291414 C67.5797854,24.7564784 68.3423146,24.9962555 69.0770933,25.2492927 C76.1840071,27.6958657 80.5191318,31.313163 80.5191318,34.1003999 C80.5191318,37.0693152 75.8373286,40.923382 68.2354129,43.4422712 L68.2354129,43.4422712 Z M65.0811285,49.6926041 C65.8496724,53.5748319 65.9594448,57.0848174 65.4503631,59.8287195 C64.9929552,62.2942945 64.0730808,63.9381475 62.935712,64.5965093 C60.5153857,65.9974412 55.3395383,64.176421 49.7575455,59.372952 C49.1176389,58.8223121 48.4730843,58.2343529 47.8264793,57.6120806 C49.9904874,55.2453421 52.1532652,52.4939217 54.2640959,49.4381999 C57.9768117,49.1087462 61.4844737,48.570136 64.6654149,47.8348108 C64.8220764,48.4667887 64.9612401,49.0865998 65.0811285,49.6926041 L65.0811285,49.6926041 Z M33.182857,64.3544084 C30.818169,65.1895268 28.9348121,65.2134497 27.7963498,64.557002 C25.3738364,63.1597609 24.3667456,57.7662818 25.7404738,50.5314137 C25.8978189,49.7028569 26.085102,48.8517445 26.300956,47.9817667 C29.4470381,48.6774481 32.9289996,49.1780543 36.6506012,49.4797577 C38.7756491,52.4698623 41.0009001,55.2182752 43.2433755,57.6247943 C42.753432,58.0977863 42.2654022,58.5480863 41.7801069,58.972412 C38.8003922,61.5770139 35.8143893,63.4249645 33.182857,64.3544084 L33.182857,64.3544084 Z M22.1045848,43.4240894 C18.3597436,42.1441397 15.2671123,40.4806012 13.1472593,38.6653224 C11.2424401,37.034046 10.2807346,35.4145259 10.2807346,34.1003999 C10.2807346,31.3038672 14.4500386,27.7368766 21.4037087,25.3124494 C22.2474394,25.0182646 23.1306773,24.741031 24.0472708,24.4806119 C25.0082927,27.6067354 26.2689675,30.8751666 27.7903349,34.1802344 C26.2492822,37.5343785 24.9706994,40.8548941 24.0002449,44.0176535 C23.3468047,43.8298238 22.7137333,43.6321514 22.1045848,43.4240894 L22.1045848,43.4240894 Z M25.8181211,18.1463429 C24.3748111,10.770124 25.3333723,5.20576617 27.7454963,3.80948202 C30.3148286,2.32201696 35.9963407,4.44282684 41.984478,9.75988896 C42.3672462,10.0997326 42.7515183,10.4554337 43.1368839,10.8234381 C40.9054814,13.2194311 38.7005993,15.9472022 36.5944166,18.9196716 C32.9824504,19.2544572 29.5249588,19.7922467 26.346068,20.5123979 C26.1462082,19.7084478 25.9691778,18.918578 25.8181211,18.1463429 L25.8181211,18.1463429 Z M58.9461724,26.3265121 C58.1862408,25.0138901 57.4060767,23.7322998 56.6107392,22.4857054 C59.0611399,22.7954743 61.4088764,23.2066768 63.613622,23.7098805 C62.9517059,25.8312372 62.1267041,28.049243 61.155566,30.3230235 C60.4589278,29.0004222 59.7220987,27.6668847 58.9461724,26.3265121 L58.9461724,26.3265121 Z M45.4366378,13.1681675 C46.9499399,14.8076463 48.4654289,16.638099 49.9560384,18.6241198 C48.4539458,18.5531709 46.933262,18.5162611 45.4000018,18.5162611 C43.8812317,18.5162611 42.3717576,18.5523507 40.8789608,18.6220692 C42.3710739,16.6545034 43.8996865,14.8265112 45.4366378,13.1681675 L45.4366378,13.1681675 Z M31.8405705,26.3492047 C31.0814589,27.6655177 30.3583002,28.99181 29.6725981,30.3205629 C28.717181,28.0547111 27.8998339,25.8265893 27.2321766,23.6751579 C29.4233885,23.1848044 31.7600525,22.7838546 34.1948691,22.4799639 C33.3883216,23.7380413 32.6017326,25.0290642 31.8405705,26.3489314 L31.8405705,26.3492047 L31.8405705,26.3492047 Z M34.2649977,45.9548715 C31.7493896,45.6742203 29.3775931,45.293913 27.1869279,44.8170927 C27.8652481,42.6272477 28.7006399,40.3515535 29.676289,38.0368986 C30.3637683,39.3646948 31.0897978,40.6915339 31.8535573,42.0107177 L31.853694,42.0107177 C32.6316706,43.3546445 33.4376713,44.6710938 34.2649977,45.9548715 L34.2649977,45.9548715 Z M45.5274088,55.2639337 C43.9724125,53.5861782 42.4213806,51.730299 40.9065749,49.7340254 C42.3770886,49.7917139 43.8763102,49.821242 45.4000018,49.821242 C46.9653875,49.821242 48.5128649,49.7859725 50.0360097,49.7181677 C48.5404788,51.7503945 47.0304581,53.6091444 45.5274088,55.2639337 L45.5274088,55.2639337 Z M61.186871,37.9189242 C62.2133735,40.2585955 63.0787034,42.5223968 63.7657725,44.6749218 C61.5390179,45.1829097 59.1348229,45.592062 56.6017167,45.8960895 C57.3989685,44.6326803 58.1859672,43.3290806 58.9592959,41.9881613 C59.7416473,40.6315213 60.4844911,39.2728306 61.186871,37.9189242 L61.186871,37.9189242 Z M56.1173778,40.3490929 C54.9168524,42.4306688 53.6843384,44.4177831 52.4330962,46.2934851 C50.1541206,46.4564346 47.7996854,46.5403704 45.4000018,46.5403704 C43.0100238,46.5403704 40.6852526,46.4661405 38.4466051,46.3208253 C37.1449192,44.4205176 35.8856115,42.4275251 34.6927413,40.3670008 L34.6930148,40.3670008 C33.5032887,38.312082 32.408298,36.2398013 31.4161078,34.1791412 C32.4080245,32.1136957 33.5001446,30.0390915 34.6830354,27.9878633 L34.682762,27.9882734 C35.8687969,25.9315772 37.1170318,23.9482905 38.4066874,22.0598756 C40.6907207,21.8872198 43.0328529,21.7971325 45.399865,21.7971325 L45.4000018,21.7971325 C47.7776765,21.7971325 50.1228159,21.8879032 52.4061655,22.0620629 C53.6761361,23.9366707 54.9158954,25.9135324 56.1065784,27.970502 C57.3107952,30.0505746 58.4169954,32.1113716 59.4173875,34.1325254 C58.4200029,36.1884011 57.3162633,38.2699776 56.1173778,40.3490929 L56.1173778,40.3490929 Z M62.8854053,3.71187609 C65.4571986,5.19496665 66.4573171,11.1762685 64.8414882,19.0196015 C64.7384139,19.5200711 64.6223535,20.0298365 64.496313,20.546437 C61.3100402,19.8112484 57.8500878,19.2641631 54.2275964,18.9243195 C52.1173123,15.9191781 49.9304748,13.1871692 47.735435,10.8219343 C48.3255818,10.254207 48.9149085,9.71286315 49.5017742,9.20200416 C55.1716667,4.26771038 60.4709575,2.31955631 62.8854053,3.71187609 L62.8854053,3.71187609 Z M22.0429688,77.296875 C23.5742188,77.296875 23.5742188,77.296875 24.3125,77.9765625 C25.0507812,78.65625 25.0507812,78.65625 25.0507812,80.15625 L25.0507812,80.15625 L25.0507812,86 L24.0898438,86 L23.8320312,84.78125 L23.7695312,84.78125 L23.609436,84.9743042 C23.0493164,85.621582 23.0493164,85.621582 22.4921875,85.8710938 C21.8554688,86.15625 21.8554688,86.15625 20.9023438,86.15625 C19.6289062,86.15625 19.6289062,86.15625 18.90625,85.5 C18.1835938,84.84375 18.1835938,84.84375 18.1835938,83.6328125 C18.1835938,81.0390625 18.1835938,81.0390625 22.3320312,80.9140625 L22.3320312,80.9140625 L23.7851562,80.8671875 L23.7851562,80.3359375 L23.7798032,80.1184896 C23.7369792,79.2747396 23.7369792,79.2747396 23.3515625,78.8476562 C22.9179688,78.3671875 22.9179688,78.3671875 21.9648438,78.3671875 C20.8945312,78.3671875 20.8945312,78.3671875 19.5429688,79.0234375 L19.5429688,79.0234375 L19.1445312,78.03125 L19.4025,77.8996875 C19.928125,77.6484375 19.928125,77.6484375 20.53125,77.4921875 C21.2851562,77.296875 21.2851562,77.296875 22.0429688,77.296875 Z M87.0976562,77.28125 C88.7070312,77.28125 88.7070312,77.28125 89.6445312,78.3398438 C90.5820312,79.3984375 90.5820312,79.3984375 90.5820312,81.1328125 L90.5820312,81.1328125 L90.5820312,81.953125 L84.6835938,81.953125 L84.6948513,82.1993815 C84.7828776,83.5260417 84.7828776,83.5260417 85.4453125,84.2421875 C86.1679688,85.0234375 86.1679688,85.0234375 87.4804688,85.0234375 C88.8632812,85.0234375 88.8632812,85.0234375 90.2148438,84.4453125 L90.2148438,84.4453125 L90.2148438,85.6015625 L89.9428125,85.7135938 C89.4046875,85.9242187 89.4046875,85.9242187 88.9140625,86.0273438 C88.3007812,86.15625 88.3007812,86.15625 87.4335938,86.15625 C85.5351562,86.15625 85.5351562,86.15625 84.4375,85 C83.3398438,83.84375 83.3398438,83.84375 83.3398438,81.7890625 C83.3398438,79.71875 83.3398438,79.71875 84.359375,78.5 C85.3789062,77.28125 85.3789062,77.28125 87.0976562,77.28125 Z M67.4960938,75.453125 L67.4960938,77.4375 L69.9804688,77.4375 L69.9804688,78.4453125 L67.4960938,78.4453125 L67.4960938,83.484375 L67.5018311,83.6721191 C67.5419922,84.3095703 67.5419922,84.3095703 67.8632812,84.671875 C68.2304688,85.0859375 68.2304688,85.0859375 68.8710938,85.0859375 C69.2148438,85.0859375 69.2148438,85.0859375 69.5351562,85.0351562 C69.8554688,84.984375 69.8554688,84.984375 70.0429688,84.9296875 L70.0429688,84.9296875 L70.0429688,85.921875 L69.950625,85.9610937 C69.75,86.0367188 69.75,86.0367188 69.421875,86.0898438 C69.0117188,86.15625 69.0117188,86.15625 68.6835938,86.15625 C66.1992188,86.15625 66.1992188,86.15625 66.1992188,83.5390625 L66.1992188,83.5390625 L66.1992188,78.4453125 L64.9726562,78.4453125 L64.9726562,77.8203125 L66.1992188,77.28125 L66.7460938,75.453125 L67.4960938,75.453125 Z M60.4257812,77.296875 C61.9570312,77.296875 61.9570312,77.296875 62.6953125,77.9765625 C63.4335938,78.65625 63.4335938,78.65625 63.4335938,80.15625 L63.4335938,80.15625 L63.4335938,86 L62.4726562,86 L62.2148438,84.78125 L62.1523438,84.78125 L61.9922485,84.9743042 C61.4321289,85.621582 61.4321289,85.621582 60.875,85.8710938 C60.2382812,86.15625 60.2382812,86.15625 59.2851562,86.15625 C58.0117188,86.15625 58.0117188,86.15625 57.2890625,85.5 C56.5664062,84.84375 56.5664062,84.84375 56.5664062,83.6328125 C56.5664062,81.0390625 56.5664062,81.0390625 60.7148438,80.9140625 L60.7148438,80.9140625 L62.1679688,80.8671875 L62.1679688,80.3359375 L62.1626157,80.1184896 C62.1197917,79.2747396 62.1197917,79.2747396 61.734375,78.8476562 C61.3007812,78.3671875 61.3007812,78.3671875 60.3476562,78.3671875 C59.2773438,78.3671875 59.2773438,78.3671875 57.9257812,79.0234375 L57.9257812,79.0234375 L57.5273438,78.03125 L57.7853125,77.8996875 C58.3109375,77.6484375 58.3109375,77.6484375 58.9140625,77.4921875 C59.6679688,77.296875 59.6679688,77.296875 60.4257812,77.296875 Z M36.7304688,75.453125 L36.7304688,77.4375 L39.2148438,77.4375 L39.2148438,78.4453125 L36.7304688,78.4453125 L36.7304688,83.484375 L36.7362061,83.6721191 C36.7763672,84.3095703 36.7763672,84.3095703 37.0976562,84.671875 C37.4648438,85.0859375 37.4648438,85.0859375 38.1054688,85.0859375 C38.4492188,85.0859375 38.4492188,85.0859375 38.7695312,85.0351562 C39.0898438,84.984375 39.0898438,84.984375 39.2773438,84.9296875 L39.2773438,84.9296875 L39.2773438,85.921875 L39.185,85.9610937 C38.984375,86.0367188 38.984375,86.0367188 38.65625,86.0898438 C38.2460938,86.15625 38.2460938,86.15625 37.9179688,86.15625 C35.4335938,86.15625 35.4335938,86.15625 35.4335938,83.5390625 L35.4335938,83.5390625 L35.4335938,78.4453125 L34.2070312,78.4453125 L34.2070312,77.8203125 L35.4335938,77.28125 L35.9804688,75.453125 L36.7304688,75.453125 Z M13.1289062,77.28125 C14.7382812,77.28125 14.7382812,77.28125 15.6757812,78.3398438 C16.6132812,79.3984375 16.6132812,79.3984375 16.6132812,81.1328125 L16.6132812,81.1328125 L16.6132812,81.953125 L10.7148438,81.953125 L10.7261013,82.1993815 C10.8141276,83.5260417 10.8141276,83.5260417 11.4765625,84.2421875 C12.1992188,85.0234375 12.1992188,85.0234375 13.5117188,85.0234375 C14.8945312,85.0234375 14.8945312,85.0234375 16.2460938,84.4453125 L16.2460938,84.4453125 L16.2460938,85.6015625 L15.9740625,85.7135938 C15.4359375,85.9242187 15.4359375,85.9242187 14.9453125,86.0273438 C14.3320312,86.15625 14.3320312,86.15625 13.4648438,86.15625 C11.5664062,86.15625 11.5664062,86.15625 10.46875,85 C9.37109375,83.84375 9.37109375,83.84375 9.37109375,81.7890625 C9.37109375,79.71875 9.37109375,79.71875 10.390625,78.5 C11.4101562,77.28125 11.4101562,77.28125 13.1289062,77.28125 Z M31.2304688,77.28125 C31.8476562,77.28125 31.8476562,77.28125 32.4648438,77.4140625 C33.0820312,77.546875 33.0820312,77.546875 33.4335938,77.7265625 L33.4335938,77.7265625 L33.0351562,78.828125 L32.8154297,78.7458496 C32.4785156,78.6279297 32.4785156,78.6279297 32.0976562,78.5429688 C31.5898438,78.4296875 31.5898438,78.4296875 31.1992188,78.4296875 C28.5898438,78.4296875 28.5898438,78.4296875 28.5898438,81.7578125 C28.5898438,83.3359375 28.5898438,83.3359375 29.2265625,84.1796875 C29.8632812,85.0234375 29.8632812,85.0234375 31.1132812,85.0234375 C32.1835938,85.0234375 32.1835938,85.0234375 33.3085938,84.5625 L33.3085938,84.5625 L33.3085938,85.7109375 L33.1121238,85.8043981 C32.3042535,86.15625 32.3042535,86.15625 31.1445312,86.15625 C29.2851562,86.15625 29.2851562,86.15625 28.265625,85.0117188 C27.2460938,83.8671875 27.2460938,83.8671875 27.2460938,81.7734375 C27.2460938,79.625 27.2460938,79.625 28.28125,78.453125 C29.3164062,77.28125 29.3164062,77.28125 31.2304688,77.28125 Z M46.8398438,74.578125 L53.0664062,84.125 L53.1289062,84.125 L53.1257425,84.0789321 C53.1083097,83.8100142 53.1083097,83.8100142 53.0585938,82.7695312 C53.0039062,81.625 53.0039062,81.625 53.0195312,81.1328125 L53.0195312,81.1328125 L53.0195312,74.578125 L54.2617188,74.578125 L54.2617188,86 L52.7460938,86 L46.5039062,76.4140625 L46.4414062,76.4140625 L46.4796007,76.96875 C46.5664062,78.3359375 46.5664062,78.3359375 46.5664062,79.5078125 L46.5664062,79.5078125 L46.5664062,86 L45.3398438,86 L45.3398438,74.578125 L46.8398438,74.578125 Z M3.28515625,74.578125 L3.57977918,74.5822305 C5.45842634,74.6356027 5.45842634,74.6356027 6.390625,75.3828125 C7.39453125,76.1875 7.39453125,76.1875 7.39453125,77.8046875 C7.39453125,80.0703125 7.39453125,80.0703125 5.09765625,80.8671875 L5.09765625,80.8671875 L8.19921875,86 L6.62890625,86 L3.86328125,81.25 L1.48046875,81.25 L1.48046875,86 L0.15234375,86 L0.15234375,74.578125 L3.28515625,74.578125 Z M73.0507812,77.4375 L73.0507812,86 L71.7539062,86 L71.7539062,77.4375 L73.0507812,77.4375 Z M75.8164062,77.4375 L77.6601562,82.515625 L77.7468112,82.7637117 C78.2929688,84.3348214 78.2929688,84.3348214 78.3945312,84.828125 L78.3945312,84.828125 L78.4570312,84.828125 L78.4757231,84.7455127 C78.584517,84.2958097 78.584517,84.2958097 79,83.1132812 C79.4570312,81.8125 79.4570312,81.8125 81.0507812,77.4375 L81.0507812,77.4375 L82.4414062,77.4375 L79.1914062,86 L77.6757812,86 L74.4257812,77.4375 L75.8164062,77.4375 Z M23.7539062,81.7890625 L22.4570312,81.84375 L22.1829158,81.8567601 C20.8480114,81.9371449 20.8480114,81.9371449 20.2265625,82.3242188 C19.5429688,82.75 19.5429688,82.75 19.5429688,83.6484375 C19.5429688,84.3515625 19.5429688,84.3515625 19.96875,84.71875 C20.3945312,85.0859375 20.3945312,85.0859375 21.1601562,85.0859375 C22.3710938,85.0859375 22.3710938,85.0859375 23.0625,84.421875 C23.7539062,83.7578125 23.7539062,83.7578125 23.7539062,82.5625 L23.7539062,82.5625 L23.7539062,81.7890625 Z M62.1367188,81.7890625 L60.8398438,81.84375 L60.5657283,81.8567601 C59.2308239,81.9371449 59.2308239,81.9371449 58.609375,82.3242188 C57.9257812,82.75 57.9257812,82.75 57.9257812,83.6484375 C57.9257812,84.3515625 57.9257812,84.3515625 58.3515625,84.71875 C58.7773438,85.0859375 58.7773438,85.0859375 59.5429688,85.0859375 C60.7539062,85.0859375 60.7539062,85.0859375 61.4453125,84.421875 C62.1367188,83.7578125 62.1367188,83.7578125 62.1367188,82.5625 L62.1367188,82.5625 L62.1367188,81.7890625 Z M13.1132812,78.3671875 C12.0820312,78.3671875 12.0820312,78.3671875 11.46875,79.0390625 C10.8554688,79.7109375 10.8554688,79.7109375 10.7460938,80.8984375 L10.7460938,80.8984375 L15.2226562,80.8984375 C15.2226562,79.671875 15.2226562,79.671875 14.6757812,79.0195312 C14.1289062,78.3671875 14.1289062,78.3671875 13.1132812,78.3671875 Z M87.0820312,78.3671875 C86.0507812,78.3671875 86.0507812,78.3671875 85.4375,79.0390625 C84.8242188,79.7109375 84.8242188,79.7109375 84.7148438,80.8984375 L84.7148438,80.8984375 L89.1914062,80.8984375 C89.1914062,79.671875 89.1914062,79.671875 88.6445312,79.0195312 C88.0976562,78.3671875 88.0976562,78.3671875 87.0820312,78.3671875 Z M3.20703125,75.7421875 L1.48046875,75.7421875 L1.48046875,80.109375 L3.30078125,80.109375 C4.70703125,80.109375 4.70703125,80.109375 5.36328125,79.5507812 C6.01953125,78.9921875 6.01953125,78.9921875 6.01953125,77.875 C6.01953125,76.7421875 6.01953125,76.7421875 5.3515625,76.2421875 C4.68359375,75.7421875 4.68359375,75.7421875 3.20703125,75.7421875 L3.20703125,75.7421875 Z M72.4101562,74.2578125 C72.7226562,74.2578125 72.7226562,74.2578125 72.9492188,74.46875 C73.1757812,74.6796875 73.1757812,74.6796875 73.1757812,75.1171875 C73.1757812,75.5546875 73.1757812,75.5546875 72.9492188,75.7695312 C72.7226562,75.984375 72.7226562,75.984375 72.4101562,75.984375 C72.0820312,75.984375 72.0820312,75.984375 71.8632812,75.7695312 C71.6445312,75.5546875 71.6445312,75.5546875 71.6445312,75.1171875 C71.6445312,74.671875 71.6445312,74.671875 71.8632812,74.4648438 C72.0820312,74.2578125 72.0820312,74.2578125 72.4101562,74.2578125 Z M45.4000018,27.242422 C49.1874942,27.242422 52.2579796,30.3127707 52.2579796,34.1003999 C52.2579796,37.8878922 49.1874942,40.9583782 45.4000018,40.9583782 C41.6125092,40.9583782 38.5420238,37.8878922 38.5420238,34.1003999 C38.5420238,30.3127707 41.6125092,27.242422 45.4000018,27.242422 Z" id="Shape"></path>
            </g>
        </g>
    </g>
</svg>